<svg xmlns="http://www.w3.org/2000/svg" version="1.1" xmlns:xlink="http://www.w3.org/1999/xlink" xmlns:svgjs="http://svgjs.dev/svgjs" width="1000" height="1000" viewBox="0 0 1000 1000"><rect width="1000" height="1000" fill="#ffffff"></rect><g transform="matrix(0.7,0,0,0.7,149.5757580166,410.4432299942867)"><svg viewBox="0 0 396 102" data-background-color="#ffffff" preserveAspectRatio="xMidYMid meet" height="257" width="1000" xmlns="http://www.w3.org/2000/svg" xmlns:xlink="http://www.w3.org/1999/xlink"><defs></defs><g id="tight-bounds" transform="matrix(1,0,0,1,0.2400002493909028,-0.22295419353665125)"><svg viewBox="0 0 395.52 102.44590838707329" height="102.44590838707329" width="395.52"><g><svg viewBox="0 0 516.9409481431056 133.89584601283224" height="102.44590838707329" width="395.52"><g><rect width="5.516996150144822" height="133.89584601283224" x="101.46155369415239" y="0" fill="#000000" opacity="1" stroke-width="0" stroke="transparent" fill-opacity="1" class="rect-o-0" data-fill-palette-color="primary" rx="1%" id="o-0" data-palette-color="#398378"></rect></g><g transform="matrix(1,0,0,1,121.42094814310563,0.33307424381300166)"><svg viewBox="0 0 395.52 133.22969752520623" height="133.22969752520623" width="395.52"><g><svg viewBox="0 0 395.52 133.22969752520623" height="133.22969752520623" width="395.52"><g><svg viewBox="0 0 395.52 133.22969752520623" height="133.22969752520623" width="395.52"><g transform="matrix(1,0,0,1,0,0)"><svg width="395.52" viewBox="2.750000238418579 -33.25 219.75001525878906 70.5" height="133.22969752520623" data-palette-color="#398378"><svg></svg><svg></svg><g class="undefined-text-0" data-fill-palette-color="primary" id="text-0"><path d="M14.05 0.5c-3.8 0-6.633-1.333-8.5-4-1.867-2.667-2.8-6.95-2.8-12.85 0-5.9 0.9-10.193 2.7-12.88 1.8-2.68 4.683-4.02 8.65-4.02v0c2.6 0 5.217 0.417 7.85 1.25v0 6.6h-2.75v-4.45c-1.467-0.533-3.167-0.8-5.1-0.8v0c-3 0-5.15 1.117-6.45 3.35-1.3 2.233-1.95 5.85-1.95 10.85 0 5 0.7 8.633 2.1 10.9 1.4 2.267 3.5 3.4 6.3 3.4v0c2.1 0 4.6-0.45 7.5-1.35v0l0.65 2.6c-2.733 0.933-5.467 1.4-8.2 1.4zM27-16.7v0c0-2.6 0.167-4.85 0.5-6.75v0c0.333-1.9 0.867-3.617 1.6-5.15v0c1.5-3.1 4.3-4.65 8.4-4.65v0c4.667 0.033 7.733 2.217 9.2 6.55v0c0.867 2.5 1.3 5.44 1.3 8.82 0 3.387-0.167 6.08-0.5 8.08-0.333 2-0.867 3.8-1.6 5.4v0c-1.533 3.267-4.333 4.9-8.4 4.9v0c-4 0-6.783-1.633-8.35-4.9v0c-1.433-2.967-2.15-7.067-2.15-12.3zM45.05-16.3v0c0-1.8-0.043-3.25-0.13-4.35-0.08-1.1-0.27-2.317-0.57-3.65-0.3-1.333-0.707-2.433-1.22-3.3-0.52-0.867-1.257-1.593-2.21-2.18-0.947-0.58-2.087-0.87-3.42-0.87-1.333 0-2.473 0.29-3.42 0.87-0.953 0.587-1.687 1.313-2.2 2.18-0.52 0.867-0.93 1.967-1.23 3.3v0c-0.467 2.067-0.7 4.357-0.7 6.87 0 2.52 0.093 4.553 0.28 6.1 0.18 1.553 0.52 3.08 1.02 4.58v0c1.033 3.1 3.117 4.65 6.25 4.65v0c3.2 0 5.3-1.567 6.3-4.7v0c0.867-2.667 1.283-5.833 1.25-9.5zM67-13.85v0c-1.267 1.2-2.533 2.35-3.8 3.45v0c-3.267 2.8-5.35 5.317-6.25 7.55v0h15.45v2.85h-18.75v-2.45c0.6-1.7 1.523-3.333 2.77-4.9 1.253-1.567 2.53-2.917 3.83-4.05v0l3.8-3.4c2.8-2.6 4.2-5.317 4.2-8.15v0c0-1.967-0.583-3.56-1.75-4.78-1.167-1.213-2.623-1.82-4.37-1.82-1.753 0-4.247 1.117-7.48 3.35v0l-1.4-2.1c3.5-2.567 6.527-3.85 9.08-3.85 2.547 0 4.66 0.807 6.34 2.42 1.687 1.62 2.53 3.987 2.53 7.1 0 3.12-1.4 6.047-4.2 8.78z" data-fill-palette-color="primary" fill="#000000" opacity="1"></path><path d="M7.05 36.75h-2.75v-32.75h17.1v2.55h-14.35v14.3h12.3v2.5h-12.3zM27 20.05v0c0-2.6 0.167-4.85 0.5-6.75v0c0.333-1.9 0.867-3.617 1.6-5.15v0c1.5-3.1 4.3-4.65 8.4-4.65v0c4.667 0.033 7.733 2.217 9.2 6.55v0c0.867 2.5 1.3 5.44 1.3 8.82 0 3.387-0.167 6.08-0.5 8.08-0.333 2-0.867 3.8-1.6 5.4v0c-1.533 3.267-4.333 4.9-8.4 4.9v0c-4 0-6.783-1.633-8.35-4.9v0c-1.433-2.967-2.15-7.067-2.15-12.3zM45.05 20.45v0c0-1.8-0.043-3.25-0.13-4.35-0.08-1.1-0.27-2.317-0.57-3.65-0.3-1.333-0.707-2.433-1.22-3.3-0.52-0.867-1.257-1.593-2.21-2.18-0.947-0.58-2.087-0.87-3.42-0.87-1.333 0-2.473 0.29-3.42 0.87-0.953 0.587-1.687 1.313-2.2 2.18-0.52 0.867-0.93 1.967-1.23 3.3v0c-0.467 2.067-0.7 4.357-0.7 6.87 0 2.52 0.093 4.553 0.28 6.1 0.18 1.553 0.52 3.08 1.02 4.58v0c1.033 3.1 3.117 4.65 6.25 4.65v0c3.2 0 5.3-1.567 6.3-4.7v0c0.867-2.667 1.283-5.833 1.25-9.5zM52 20.05v0c0-2.6 0.167-4.85 0.5-6.75v0c0.333-1.9 0.867-3.617 1.6-5.15v0c1.5-3.1 4.3-4.65 8.4-4.65v0c4.667 0.033 7.733 2.217 9.2 6.55v0c0.867 2.5 1.3 5.44 1.3 8.82 0 3.387-0.167 6.08-0.5 8.08-0.333 2-0.867 3.8-1.6 5.4v0c-1.533 3.267-4.333 4.9-8.4 4.9v0c-4 0-6.783-1.633-8.35-4.9v0c-1.433-2.967-2.15-7.067-2.15-12.3zM70.05 20.45v0c0-1.8-0.043-3.25-0.13-4.35-0.08-1.1-0.27-2.317-0.57-3.65-0.3-1.333-0.707-2.433-1.22-3.3-0.52-0.867-1.257-1.593-2.21-2.18-0.947-0.58-2.087-0.87-3.42-0.87-1.333 0-2.473 0.29-3.42 0.87-0.953 0.587-1.687 1.313-2.2 2.18-0.52 0.867-0.93 1.967-1.23 3.3v0c-0.467 2.067-0.7 4.357-0.7 6.87 0 2.52 0.093 4.553 0.28 6.1 0.18 1.553 0.52 3.08 1.02 4.58v0c1.033 3.1 3.117 4.65 6.25 4.65v0c3.2 0 5.3-1.567 6.3-4.7v0c0.867-2.667 1.283-5.833 1.25-9.5zM86.05 6.55h-8.65v-2.55h20.1v2.55h-8.7v30.2h-2.75zM110.8 24.75v0h-4.6v12h-2.75v-32.75h7.35c4 0 6.957 0.757 8.87 2.27 1.92 1.52 2.88 4.147 2.88 7.88 0 3.733-0.967 6.433-2.9 8.1-1.933 1.667-4.883 2.5-8.85 2.5zM110.8 6.5v0h-4.6v15.75h4.6c3.067 0 5.31-0.617 6.73-1.85 1.413-1.233 2.12-3.3 2.12-6.2 0-2.9-0.7-4.91-2.1-6.03-1.4-1.113-3.65-1.67-6.75-1.67zM138.4 23.3v0c-1.8 0.1-2.967 0.15-3.5 0.15v0h-4.1v13.3h-2.75v-32.75h7.35c4.067 0 7.05 0.7 8.95 2.1 1.9 1.4 2.85 3.867 2.85 7.4v0c0 2.367-0.473 4.267-1.42 5.7-0.953 1.433-2.48 2.6-4.58 3.5v0c2.267 4.3 4.333 8.983 6.2 14.05v0h-3c-1.833-4.867-3.833-9.35-6-13.45zM135.3 6.5v0h-4.5v14.45h4c3.067 0 5.417-0.56 7.05-1.68 1.633-1.113 2.45-3.037 2.45-5.77 0-2.733-0.723-4.583-2.17-5.55-1.453-0.967-3.73-1.45-6.83-1.45zM169.5 36.75h-13.95v-2.5h5.65v-27.75h-5.65v-2.5h13.95v2.5h-5.55v27.75h5.55zM197.45 36.75h-2.75v-5.15l-14.25-22.4h-0.15v27.55h-2.75v-32.75h2.7l14.3 22.65h0.15v-22.65h2.75zM211.05 6.55h-8.65v-2.55h20.1v2.55h-8.7v30.2h-2.75z" data-fill-palette-color="primary" fill="#000000" opacity="1"></path></g></svg></g></svg></g></svg></g></svg></g><g transform="matrix(1,0,0,1,0,0.33307424381300166)"><svg viewBox="0 0 87.01915539534396 133.22969752520623" height="133.22969752520623" width="87.01915539534396"><g><svg xmlns="http://www.w3.org/2000/svg" xmlns:xlink="http://www.w3.org/1999/xlink" version="1.1" x="0" y="0" viewBox="54.809776306152344 72.80135345458984 361.7822570800781 553.9026489257812" enable-background="new 0 0 479.977 686.965" xml:space="preserve" height="133.22969752520623" width="87.01915539534396" class="icon-icon-0" data-fill-palette-color="accent" id="icon-0"><g fill="#398378" data-fill-palette-color="accent"><path fill="#000000" d="M115.556 205.187c19.744 1.745 48.279-15.424 58.692-33.163 19.114-32.562 2.203-66.221-16.803-84.133-19.11-18.011-43.839-16.863-63.063-11.999-20.355 5.152-34.686 26.58-38.983 49.917M220.991 89.855c-8.341 9.516-16.021 19.456-18.236 31.34-4.203 22.553 10.125 39.736 30.564 42.249 18.057 2.221 39.793-17.965 41.65-38.674 1.919-21.402-10.566-36.074-32.539-39.383M312.935 177.544c18.419 1.657 38.199-16.848 39.496-36.948 1.129-17.493-12.323-35.041-27.773-36.229-18.773-1.443-35.254 15.174-37.008 37.314C286.188 160.105 297.505 176.154 312.935 177.544zM371.028 215.92c9.193 5.014 18.037 1.557 25.412-5.197 6.357-5.822 14.308-10.916 18.257-18.136 7.081-12.948-7.233-27.289-17.387-30.022-19.728-5.308-36.222 6.782-38.118 27.481C358.263 200.919 361.251 210.59 371.028 215.92z" data-fill-palette-color="accent"></path><path fill-rule="evenodd" clip-rule="evenodd" d="M333.756 534.405c-18.741 18.59-99.166 45.773-85.166-19.227 36-89 40.308-127.23 13.857-153.668-7.879-7.875-49.808-61.214 2.716-83.332 42.236-17.786 84.478 7.589 84.493 7.597 12.216 6.36 26.628 16.253 31.818 21.064 8.278 7.673 14.698-3.326 14.023-5.688-3.303-11.549-6.598-23.333-11.902-34.037-20.584-41.529-55.284-52.375-117.557-75.082-52.062-18.983-115.569 21.578-128.751 78.456-8.816 38.036 5.717 71.219 34.421 97.354 9.858 8.975 21.355 16.191 32.332 23.889 20.231 14.182 25.176 34.328 25.479 57.779 0.42 32.322-14.301 60.404-22.262 90.371-5.596 21.072-7.178 41.318 6.233 61.055 14.271 21.002 33.909 28.922 57.396 24.65 35.408-7.055 73.857-26.701 91.992-67.223 17.36-38.791 36.052-151.127 29.61-146.141C370.59 429.178 363.222 505.178 333.756 534.405z" fill="#000000" data-fill-palette-color="accent"></path><path fill-rule="evenodd" clip-rule="evenodd" d="M115.556 205.187c19.744 1.745 48.279-15.424 58.692-33.163 19.114-32.562 2.203-66.221-16.803-84.133-19.11-18.011-43.839-16.863-63.063-11.999-20.355 5.152-34.686 26.58-38.983 49.917C49.068 160.181 95.399 200.393 115.556 205.187z" fill="#000000" data-fill-palette-color="accent"></path><path fill-rule="evenodd" clip-rule="evenodd" d="M242.431 85.387c-7.439-0.685-17.811 0.781-21.439 4.468-9.26 9.408-16.021 19.456-18.236 31.34-4.203 22.553 10.125 39.736 30.564 42.249 18.057 2.221 39.793-17.965 41.65-38.674C276.889 103.368 264.403 88.696 242.431 85.387z" fill="#000000" data-fill-palette-color="accent"></path><path fill-rule="evenodd" clip-rule="evenodd" d="M287.649 141.681c-1.461 18.424 9.855 34.473 25.285 35.863 18.419 1.657 38.199-16.848 39.496-36.948 1.129-17.493-12.323-35.041-27.773-36.229C305.884 102.923 289.403 119.541 287.649 141.681z" fill="#000000" data-fill-palette-color="accent"></path><path fill-rule="evenodd" clip-rule="evenodd" d="M354.192 194.046c-0.93 10.873 2.059 20.544 11.836 25.874 9.193 5.014 18.037 1.557 25.412-5.197 6.357-5.822 12.066-7.539 16.016-14.759 7.081-12.948-4.992-30.666-15.146-33.399C372.583 161.257 356.089 173.347 354.192 194.046z" fill="#000000" data-fill-palette-color="accent"></path></g></svg></g></svg></g></svg></g></svg><rect width="395.52" height="102.44590838707329" fill="none" stroke="none" visibility="hidden"></rect></g></svg></g></svg>